<svg width="768" height="114" viewBox="0 0 768 114" fill="none" xmlns="http://www.w3.org/2000/svg">
<path d="M65.695 0L98.5425 57H32.8475L65.695 0Z" fill="#1C5400"/>
<path d="M32.8475 57L65.6949 114H0L32.8475 57Z" fill="#1C5400"/>
<path d="M98.5425 57L131.39 114H65.6951L98.5425 57Z" fill="#1C5400"/>
<mask id="path-4-outside-1_54_41" maskUnits="userSpaceOnUse" x="143" y="10" width="616" height="106" fill="black">
<rect fill="white" x="143" y="10" width="616" height="106"/>
<path d="M145.312 112V16.512H145.44L193.952 85.376L188.704 84.352L237.088 16.512H237.344V112H225.056V44.672L225.824 50.944L190.88 100.352H190.624L155.168 50.944L157.344 45.184V112H145.312ZM253.825 84.992C253.825 79.7013 255.062 74.9227 257.537 70.656C260.097 66.3893 263.596 63.0187 268.033 60.544C272.47 58.0693 277.505 56.832 283.137 56.832C288.94 56.832 294.017 58.0693 298.369 60.544C302.721 63.0187 306.092 66.3893 308.481 70.656C310.87 74.9227 312.065 79.7013 312.065 84.992C312.065 90.2827 310.87 95.104 308.481 99.456C306.092 103.723 302.678 107.093 298.241 109.568C293.889 112.043 288.812 113.28 283.009 113.28C277.377 113.28 272.342 112.128 267.905 109.824C263.553 107.435 260.097 104.149 257.537 99.968C255.062 95.7013 253.825 90.7093 253.825 84.992ZM265.729 85.12C265.729 88.5333 266.497 91.648 268.033 94.464C269.569 97.1947 271.617 99.3707 274.177 100.992C276.822 102.613 279.724 103.424 282.881 103.424C286.209 103.424 289.153 102.613 291.713 100.992C294.358 99.3707 296.406 97.1947 297.857 94.464C299.308 91.648 300.033 88.5333 300.033 85.12C300.033 81.7067 299.308 78.6347 297.857 75.904C296.406 73.088 294.358 70.8693 291.713 69.248C289.153 67.5413 286.209 66.688 282.881 66.688C279.638 66.688 276.694 67.5413 274.049 69.248C271.489 70.9547 269.441 73.216 267.905 76.032C266.454 78.7627 265.729 81.792 265.729 85.12ZM336.247 59.008L337.271 71.936L336.759 69.888C338.466 65.9627 341.239 62.848 345.079 60.544C348.919 58.1547 353.356 56.96 358.391 56.96C363.426 56.96 367.522 58.4533 370.679 61.44C373.922 64.3413 375.586 68.1387 375.671 72.832V112H363.639V77.056C363.554 74.1547 362.7 71.808 361.079 70.016C359.543 68.1387 357.111 67.2 353.783 67.2C350.711 67.2 347.938 68.0533 345.463 69.76C342.988 71.4667 341.026 73.8133 339.575 76.8C338.21 79.7867 337.527 83.2427 337.527 87.168V112H325.623V59.008H336.247ZM398.933 35.712H410.837V59.264H425.429V68.608H410.837V112H398.933V68.608H389.205V59.264H398.933V35.712ZM459.269 113.28C454.32 113.28 449.797 112.213 445.701 110.08C441.69 107.947 438.49 104.832 436.101 100.736C433.797 96.5547 432.645 91.4773 432.645 85.504C432.645 79.616 433.882 74.5387 436.357 70.272C438.832 65.92 442.117 62.592 446.213 60.288C450.394 57.984 454.96 56.832 459.909 56.832C464.858 56.832 469.04 57.984 472.453 60.288C475.866 62.5067 478.469 65.152 480.261 68.224L479.493 70.272L480.645 59.008H491.653V112H479.749V98.176L481.029 101.248C480.688 102.101 479.92 103.211 478.725 104.576C477.616 105.856 476.08 107.179 474.117 108.544C472.24 109.909 470.064 111.061 467.589 112C465.114 112.853 462.341 113.28 459.269 113.28ZM462.469 103.424C465.456 103.424 468.144 102.869 470.533 101.76C472.922 100.651 474.885 99.1147 476.421 97.152C478.042 95.104 479.152 92.672 479.749 89.856V79.488C479.066 76.928 477.872 74.7093 476.165 72.832C474.458 70.8693 472.41 69.376 470.021 68.352C467.632 67.2427 464.986 66.688 462.085 66.688C458.928 66.688 456.026 67.456 453.381 68.992C450.736 70.528 448.602 72.6613 446.981 75.392C445.445 78.1227 444.677 81.3227 444.677 84.992C444.677 88.4053 445.488 91.52 447.109 94.336C448.73 97.152 450.906 99.3707 453.637 100.992C456.368 102.613 459.312 103.424 462.469 103.424ZM541.949 113.28C537.085 113.28 532.776 112.213 529.021 110.08C525.352 107.947 522.408 105.259 520.189 102.016L521.597 98.304V112H509.693V12.928H521.469V71.168L521.085 66.688C523.218 63.7867 526.248 61.44 530.173 59.648C534.184 57.7707 538.621 56.832 543.485 56.832C548.264 56.832 552.616 57.984 556.541 60.288C560.466 62.592 563.581 65.8347 565.885 70.016C568.274 74.112 569.469 79.0187 569.469 84.736C569.469 90.7093 568.189 95.8293 565.629 100.096C563.154 104.363 559.826 107.648 555.645 109.952C551.464 112.171 546.898 113.28 541.949 113.28ZM539.517 103.168C542.93 103.168 546.002 102.357 548.733 100.736C551.464 99.1147 553.597 96.9387 555.133 94.208C556.669 91.392 557.437 88.192 557.437 84.608C557.437 81.1947 556.626 78.1227 555.005 75.392C553.469 72.576 551.336 70.3573 548.605 68.736C545.96 67.1147 542.93 66.304 539.517 66.304C536.616 66.304 533.928 66.8587 531.453 67.968C528.978 69.0773 526.888 70.6133 525.181 72.576C523.474 74.4533 522.28 76.672 521.597 79.232V89.856C522.28 92.416 523.432 94.72 525.053 96.768C526.674 98.7307 528.722 100.309 531.197 101.504C533.672 102.613 536.445 103.168 539.517 103.168ZM605.024 113.28C600.075 113.28 595.552 112.213 591.456 110.08C587.445 107.947 584.245 104.832 581.856 100.736C579.552 96.5547 578.4 91.4773 578.4 85.504C578.4 79.616 579.637 74.5387 582.112 70.272C584.587 65.92 587.872 62.592 591.968 60.288C596.149 57.984 600.715 56.832 605.664 56.832C610.613 56.832 614.795 57.984 618.208 60.288C621.621 62.5067 624.224 65.152 626.016 68.224L625.248 70.272L626.4 59.008H637.408V112H625.504V98.176L626.784 101.248C626.443 102.101 625.675 103.211 624.48 104.576C623.371 105.856 621.835 107.179 619.872 108.544C617.995 109.909 615.819 111.061 613.344 112C610.869 112.853 608.096 113.28 605.024 113.28ZM608.224 103.424C611.211 103.424 613.899 102.869 616.288 101.76C618.677 100.651 620.64 99.1147 622.176 97.152C623.797 95.104 624.907 92.672 625.504 89.856V79.488C624.821 76.928 623.627 74.7093 621.92 72.832C620.213 70.8693 618.165 69.376 615.776 68.352C613.387 67.2427 610.741 66.688 607.84 66.688C604.683 66.688 601.781 67.456 599.136 68.992C596.491 70.528 594.357 72.6613 592.736 75.392C591.2 78.1227 590.432 81.3227 590.432 84.992C590.432 88.4053 591.243 91.52 592.864 94.336C594.485 97.152 596.661 99.3707 599.392 100.992C602.123 102.613 605.067 103.424 608.224 103.424ZM670.296 113.024C666.541 113.024 662.872 112.384 659.288 111.104C655.789 109.739 652.888 107.733 650.584 105.088L655.576 98.176C657.795 100.309 660.056 101.931 662.36 103.04C664.749 104.064 667.096 104.576 669.4 104.576C671.107 104.576 672.685 104.363 674.136 103.936C675.587 103.509 676.739 102.827 677.592 101.888C678.531 100.864 679 99.4987 679 97.792C679 95.9147 678.36 94.4213 677.08 93.312C675.885 92.2027 674.307 91.3067 672.344 90.624C670.467 89.9413 668.461 89.3013 666.328 88.704C661.976 87.2533 658.648 85.248 656.344 82.688C654.04 80.128 652.888 77.0133 652.888 73.344C652.888 70.528 653.571 67.9253 654.936 65.536C656.387 63.0613 658.477 61.056 661.208 59.52C664.024 57.984 667.48 57.216 671.576 57.216C675.245 57.216 678.531 57.6853 681.432 58.624C684.333 59.4773 687.064 60.928 689.624 62.976L684.888 70.4C683.352 68.7787 681.517 67.584 679.384 66.816C677.251 66.048 675.331 65.6213 673.624 65.536C672.173 65.4507 670.765 65.664 669.4 66.176C668.12 66.688 667.053 67.4133 666.2 68.352C665.347 69.2907 664.92 70.4 664.92 71.68C664.92 73.472 665.517 74.9227 666.712 76.032C667.907 77.1413 669.443 78.0373 671.32 78.72C673.283 79.3173 675.203 79.9573 677.08 80.64C679.725 81.408 682.072 82.432 684.12 83.712C686.168 84.992 687.789 86.5707 688.984 88.448C690.264 90.3253 690.904 92.672 690.904 95.488C690.904 98.6453 690.136 101.589 688.6 104.32C687.149 106.965 684.888 109.099 681.816 110.72C678.829 112.256 674.989 113.024 670.296 113.024ZM729.589 113.28C723.53 113.28 718.325 112.085 713.973 109.696C709.621 107.221 706.25 103.893 703.861 99.712C701.557 95.4453 700.405 90.5813 700.405 85.12C700.405 79.9147 701.728 75.1787 704.373 70.912C707.018 66.6453 710.56 63.232 714.997 60.672C719.434 58.112 724.384 56.832 729.845 56.832C736.842 56.832 742.645 58.88 747.253 62.976C751.861 67.072 754.976 72.704 756.597 79.872L712.949 95.232L710.133 88.192L745.973 75.136L743.413 76.8C742.389 73.984 740.682 71.552 738.293 69.504C735.904 67.3707 732.789 66.304 728.949 66.304C725.706 66.304 722.805 67.1147 720.245 68.736C717.685 70.272 715.68 72.4053 714.229 75.136C712.778 77.8667 712.053 80.9813 712.053 84.48C712.053 88.1493 712.821 91.392 714.357 94.208C715.893 96.9387 717.984 99.1147 720.629 100.736C723.36 102.272 726.432 103.04 729.845 103.04C732.149 103.04 734.368 102.613 736.501 101.76C738.72 100.907 740.768 99.7973 742.645 98.432L748.149 107.264C745.504 109.056 742.517 110.507 739.189 111.616C735.946 112.725 732.746 113.28 729.589 113.28Z"/>
</mask>
<path d="M145.312 112V16.512H145.44L193.952 85.376L188.704 84.352L237.088 16.512H237.344V112H225.056V44.672L225.824 50.944L190.88 100.352H190.624L155.168 50.944L157.344 45.184V112H145.312ZM253.825 84.992C253.825 79.7013 255.062 74.9227 257.537 70.656C260.097 66.3893 263.596 63.0187 268.033 60.544C272.47 58.0693 277.505 56.832 283.137 56.832C288.94 56.832 294.017 58.0693 298.369 60.544C302.721 63.0187 306.092 66.3893 308.481 70.656C310.87 74.9227 312.065 79.7013 312.065 84.992C312.065 90.2827 310.87 95.104 308.481 99.456C306.092 103.723 302.678 107.093 298.241 109.568C293.889 112.043 288.812 113.28 283.009 113.28C277.377 113.28 272.342 112.128 267.905 109.824C263.553 107.435 260.097 104.149 257.537 99.968C255.062 95.7013 253.825 90.7093 253.825 84.992ZM265.729 85.12C265.729 88.5333 266.497 91.648 268.033 94.464C269.569 97.1947 271.617 99.3707 274.177 100.992C276.822 102.613 279.724 103.424 282.881 103.424C286.209 103.424 289.153 102.613 291.713 100.992C294.358 99.3707 296.406 97.1947 297.857 94.464C299.308 91.648 300.033 88.5333 300.033 85.12C300.033 81.7067 299.308 78.6347 297.857 75.904C296.406 73.088 294.358 70.8693 291.713 69.248C289.153 67.5413 286.209 66.688 282.881 66.688C279.638 66.688 276.694 67.5413 274.049 69.248C271.489 70.9547 269.441 73.216 267.905 76.032C266.454 78.7627 265.729 81.792 265.729 85.12ZM336.247 59.008L337.271 71.936L336.759 69.888C338.466 65.9627 341.239 62.848 345.079 60.544C348.919 58.1547 353.356 56.96 358.391 56.96C363.426 56.96 367.522 58.4533 370.679 61.44C373.922 64.3413 375.586 68.1387 375.671 72.832V112H363.639V77.056C363.554 74.1547 362.7 71.808 361.079 70.016C359.543 68.1387 357.111 67.2 353.783 67.2C350.711 67.2 347.938 68.0533 345.463 69.76C342.988 71.4667 341.026 73.8133 339.575 76.8C338.21 79.7867 337.527 83.2427 337.527 87.168V112H325.623V59.008H336.247ZM398.933 35.712H410.837V59.264H425.429V68.608H410.837V112H398.933V68.608H389.205V59.264H398.933V35.712ZM459.269 113.28C454.32 113.28 449.797 112.213 445.701 110.08C441.69 107.947 438.49 104.832 436.101 100.736C433.797 96.5547 432.645 91.4773 432.645 85.504C432.645 79.616 433.882 74.5387 436.357 70.272C438.832 65.92 442.117 62.592 446.213 60.288C450.394 57.984 454.96 56.832 459.909 56.832C464.858 56.832 469.04 57.984 472.453 60.288C475.866 62.5067 478.469 65.152 480.261 68.224L479.493 70.272L480.645 59.008H491.653V112H479.749V98.176L481.029 101.248C480.688 102.101 479.92 103.211 478.725 104.576C477.616 105.856 476.08 107.179 474.117 108.544C472.24 109.909 470.064 111.061 467.589 112C465.114 112.853 462.341 113.28 459.269 113.28ZM462.469 103.424C465.456 103.424 468.144 102.869 470.533 101.76C472.922 100.651 474.885 99.1147 476.421 97.152C478.042 95.104 479.152 92.672 479.749 89.856V79.488C479.066 76.928 477.872 74.7093 476.165 72.832C474.458 70.8693 472.41 69.376 470.021 68.352C467.632 67.2427 464.986 66.688 462.085 66.688C458.928 66.688 456.026 67.456 453.381 68.992C450.736 70.528 448.602 72.6613 446.981 75.392C445.445 78.1227 444.677 81.3227 444.677 84.992C444.677 88.4053 445.488 91.52 447.109 94.336C448.73 97.152 450.906 99.3707 453.637 100.992C456.368 102.613 459.312 103.424 462.469 103.424ZM541.949 113.28C537.085 113.28 532.776 112.213 529.021 110.08C525.352 107.947 522.408 105.259 520.189 102.016L521.597 98.304V112H509.693V12.928H521.469V71.168L521.085 66.688C523.218 63.7867 526.248 61.44 530.173 59.648C534.184 57.7707 538.621 56.832 543.485 56.832C548.264 56.832 552.616 57.984 556.541 60.288C560.466 62.592 563.581 65.8347 565.885 70.016C568.274 74.112 569.469 79.0187 569.469 84.736C569.469 90.7093 568.189 95.8293 565.629 100.096C563.154 104.363 559.826 107.648 555.645 109.952C551.464 112.171 546.898 113.28 541.949 113.28ZM539.517 103.168C542.93 103.168 546.002 102.357 548.733 100.736C551.464 99.1147 553.597 96.9387 555.133 94.208C556.669 91.392 557.437 88.192 557.437 84.608C557.437 81.1947 556.626 78.1227 555.005 75.392C553.469 72.576 551.336 70.3573 548.605 68.736C545.96 67.1147 542.93 66.304 539.517 66.304C536.616 66.304 533.928 66.8587 531.453 67.968C528.978 69.0773 526.888 70.6133 525.181 72.576C523.474 74.4533 522.28 76.672 521.597 79.232V89.856C522.28 92.416 523.432 94.72 525.053 96.768C526.674 98.7307 528.722 100.309 531.197 101.504C533.672 102.613 536.445 103.168 539.517 103.168ZM605.024 113.28C600.075 113.28 595.552 112.213 591.456 110.08C587.445 107.947 584.245 104.832 581.856 100.736C579.552 96.5547 578.4 91.4773 578.4 85.504C578.4 79.616 579.637 74.5387 582.112 70.272C584.587 65.92 587.872 62.592 591.968 60.288C596.149 57.984 600.715 56.832 605.664 56.832C610.613 56.832 614.795 57.984 618.208 60.288C621.621 62.5067 624.224 65.152 626.016 68.224L625.248 70.272L626.4 59.008H637.408V112H625.504V98.176L626.784 101.248C626.443 102.101 625.675 103.211 624.48 104.576C623.371 105.856 621.835 107.179 619.872 108.544C617.995 109.909 615.819 111.061 613.344 112C610.869 112.853 608.096 113.28 605.024 113.28ZM608.224 103.424C611.211 103.424 613.899 102.869 616.288 101.76C618.677 100.651 620.64 99.1147 622.176 97.152C623.797 95.104 624.907 92.672 625.504 89.856V79.488C624.821 76.928 623.627 74.7093 621.92 72.832C620.213 70.8693 618.165 69.376 615.776 68.352C613.387 67.2427 610.741 66.688 607.84 66.688C604.683 66.688 601.781 67.456 599.136 68.992C596.491 70.528 594.357 72.6613 592.736 75.392C591.2 78.1227 590.432 81.3227 590.432 84.992C590.432 88.4053 591.243 91.52 592.864 94.336C594.485 97.152 596.661 99.3707 599.392 100.992C602.123 102.613 605.067 103.424 608.224 103.424ZM670.296 113.024C666.541 113.024 662.872 112.384 659.288 111.104C655.789 109.739 652.888 107.733 650.584 105.088L655.576 98.176C657.795 100.309 660.056 101.931 662.36 103.04C664.749 104.064 667.096 104.576 669.4 104.576C671.107 104.576 672.685 104.363 674.136 103.936C675.587 103.509 676.739 102.827 677.592 101.888C678.531 100.864 679 99.4987 679 97.792C679 95.9147 678.36 94.4213 677.08 93.312C675.885 92.2027 674.307 91.3067 672.344 90.624C670.467 89.9413 668.461 89.3013 666.328 88.704C661.976 87.2533 658.648 85.248 656.344 82.688C654.04 80.128 652.888 77.0133 652.888 73.344C652.888 70.528 653.571 67.9253 654.936 65.536C656.387 63.0613 658.477 61.056 661.208 59.52C664.024 57.984 667.48 57.216 671.576 57.216C675.245 57.216 678.531 57.6853 681.432 58.624C684.333 59.4773 687.064 60.928 689.624 62.976L684.888 70.4C683.352 68.7787 681.517 67.584 679.384 66.816C677.251 66.048 675.331 65.6213 673.624 65.536C672.173 65.4507 670.765 65.664 669.4 66.176C668.12 66.688 667.053 67.4133 666.2 68.352C665.347 69.2907 664.92 70.4 664.92 71.68C664.92 73.472 665.517 74.9227 666.712 76.032C667.907 77.1413 669.443 78.0373 671.32 78.72C673.283 79.3173 675.203 79.9573 677.08 80.64C679.725 81.408 682.072 82.432 684.12 83.712C686.168 84.992 687.789 86.5707 688.984 88.448C690.264 90.3253 690.904 92.672 690.904 95.488C690.904 98.6453 690.136 101.589 688.6 104.32C687.149 106.965 684.888 109.099 681.816 110.72C678.829 112.256 674.989 113.024 670.296 113.024ZM729.589 113.28C723.53 113.28 718.325 112.085 713.973 109.696C709.621 107.221 706.25 103.893 703.861 99.712C701.557 95.4453 700.405 90.5813 700.405 85.12C700.405 79.9147 701.728 75.1787 704.373 70.912C707.018 66.6453 710.56 63.232 714.997 60.672C719.434 58.112 724.384 56.832 729.845 56.832C736.842 56.832 742.645 58.88 747.253 62.976C751.861 67.072 754.976 72.704 756.597 79.872L712.949 95.232L710.133 88.192L745.973 75.136L743.413 76.8C742.389 73.984 740.682 71.552 738.293 69.504C735.904 67.3707 732.789 66.304 728.949 66.304C725.706 66.304 722.805 67.1147 720.245 68.736C717.685 70.272 715.68 72.4053 714.229 75.136C712.778 77.8667 712.053 80.9813 712.053 84.48C712.053 88.1493 712.821 91.392 714.357 94.208C715.893 96.9387 717.984 99.1147 720.629 100.736C723.36 102.272 726.432 103.04 729.845 103.04C732.149 103.04 734.368 102.613 736.501 101.76C738.72 100.907 740.768 99.7973 742.645 98.432L748.149 107.264C745.504 109.056 742.517 110.507 739.189 111.616C735.946 112.725 732.746 113.28 729.589 113.28Z" fill="black"/>
<path d="M145.312 112H143.312V114H145.312V112ZM145.312 16.512V14.512H143.312V16.512H145.312ZM145.44 16.512L147.075 15.3602L146.478 14.512H145.44V16.512ZM193.952 85.376L193.569 87.339L198.453 88.2919L195.587 84.2242L193.952 85.376ZM188.704 84.352L187.076 83.1907L185.272 85.72L188.321 86.315L188.704 84.352ZM237.088 16.512V14.512H236.058L235.46 15.3507L237.088 16.512ZM237.344 16.512H239.344V14.512H237.344V16.512ZM237.344 112V114H239.344V112H237.344ZM225.056 112H223.056V114H225.056V112ZM225.056 44.672L227.041 44.4289L223.056 44.672H225.056ZM225.824 50.944L227.457 52.0989L227.903 51.4679L227.809 50.7009L225.824 50.944ZM190.88 100.352V102.352H191.915L192.513 101.507L190.88 100.352ZM190.624 100.352L188.999 101.518L189.598 102.352H190.624V100.352ZM155.168 50.944L153.297 50.2372L152.918 51.2395L153.543 52.1101L155.168 50.944ZM157.344 45.184H159.344L155.473 44.4772L157.344 45.184ZM157.344 112V114H159.344V112H157.344ZM147.312 112V16.512H143.312V112H147.312ZM145.312 18.512H145.44V14.512H145.312V18.512ZM143.805 17.6638L192.317 86.5278L195.587 84.2242L147.075 15.3602L143.805 17.6638ZM194.335 83.413L189.087 82.389L188.321 86.315L193.569 87.339L194.335 83.413ZM190.332 85.5133L238.716 17.6733L235.46 15.3507L187.076 83.1907L190.332 85.5133ZM237.088 18.512H237.344V14.512H237.088V18.512ZM235.344 16.512V112H239.344V16.512H235.344ZM237.344 110H225.056V114H237.344V110ZM227.056 112V44.672H223.056V112H227.056ZM223.071 44.9151L223.839 51.1871L227.809 50.7009L227.041 44.4289L223.071 44.9151ZM224.191 49.7891L189.247 99.1971L192.513 101.507L227.457 52.0989L224.191 49.7891ZM190.88 98.352H190.624V102.352H190.88V98.352ZM192.249 99.1859L156.793 49.7779L153.543 52.1101L188.999 101.518L192.249 99.1859ZM157.039 51.6508L159.215 45.8908L155.473 44.4772L153.297 50.2372L157.039 51.6508ZM155.344 45.184V112H159.344V45.184H155.344ZM157.344 110H145.312V114H157.344V110ZM257.537 70.656L255.822 69.627L255.814 69.6397L255.807 69.6526L257.537 70.656ZM268.033 60.544L269.007 62.2907L269.007 62.2907L268.033 60.544ZM298.369 60.544L297.38 62.2826L297.38 62.2826L298.369 60.544ZM308.481 70.656L310.226 69.6788L310.226 69.6788L308.481 70.656ZM308.481 99.456L310.226 100.433L310.23 100.426L310.234 100.419L308.481 99.456ZM298.241 109.568L297.267 107.821L297.26 107.825L297.252 107.829L298.241 109.568ZM267.905 109.824L266.942 111.577L266.963 111.588L266.983 111.599L267.905 109.824ZM257.537 99.968L255.807 100.971L255.819 100.992L255.831 101.012L257.537 99.968ZM268.033 94.464L266.277 95.4217L266.283 95.4332L266.29 95.4445L268.033 94.464ZM274.177 100.992L273.107 102.682L273.119 102.69L273.132 102.697L274.177 100.992ZM291.713 100.992L290.668 99.2868L290.655 99.2945L290.643 99.3024L291.713 100.992ZM297.857 94.464L299.623 95.4023L299.629 95.3911L299.635 95.3799L297.857 94.464ZM297.857 75.904L296.079 76.8199L296.085 76.8311L296.091 76.8423L297.857 75.904ZM291.713 69.248L290.604 70.9121L290.635 70.9333L290.668 70.9532L291.713 69.248ZM274.049 69.248L272.965 67.5674L272.952 67.5756L272.94 67.5839L274.049 69.248ZM267.905 76.032L266.149 75.0743L266.144 75.084L266.139 75.0937L267.905 76.032ZM255.825 84.992C255.825 80.0273 256.982 75.5991 259.267 71.6594L255.807 69.6526C253.143 74.2462 251.825 79.3754 251.825 84.992H255.825ZM259.252 71.685C261.628 67.7248 264.869 64.5988 269.007 62.2907L267.059 58.7973C262.323 61.4385 258.566 65.0539 255.822 69.627L259.252 71.685ZM269.007 62.2907C273.115 59.9996 277.808 58.832 283.137 58.832V54.832C277.202 54.832 271.825 56.139 267.059 58.7973L269.007 62.2907ZM283.137 58.832C288.649 58.832 293.375 60.0048 297.38 62.2826L299.358 58.8054C294.659 56.1338 289.231 54.832 283.137 54.832V58.832ZM297.38 62.2826C301.424 64.5816 304.529 67.6924 306.736 71.6332L310.226 69.6788C307.654 65.0863 304.018 61.4557 299.358 58.8054L297.38 62.2826ZM306.736 71.6332C308.945 75.5771 310.065 80.0147 310.065 84.992H314.065C314.065 79.388 312.796 74.2682 310.226 69.6788L306.736 71.6332ZM310.065 84.992C310.065 89.969 308.945 94.4558 306.728 98.4935L310.234 100.419C312.796 95.7522 314.065 90.5964 314.065 84.992H310.065ZM306.736 98.4788C304.535 102.41 301.394 105.519 297.267 107.821L299.215 111.315C303.962 108.667 307.649 105.036 310.226 100.433L306.736 98.4788ZM297.252 107.829C293.247 110.107 288.521 111.28 283.009 111.28V115.28C289.103 115.28 294.531 113.978 299.23 111.307L297.252 107.829ZM283.009 111.28C277.657 111.28 272.945 110.187 268.827 108.049L266.983 111.599C271.74 114.069 277.097 115.28 283.009 115.28V111.28ZM268.868 108.071C264.817 105.847 261.619 102.804 259.243 98.9237L255.831 101.012C258.576 105.495 262.289 109.022 266.942 111.577L268.868 108.071ZM259.267 98.9646C256.996 95.0484 255.825 90.4137 255.825 84.992H251.825C251.825 91.005 253.129 96.3543 255.807 100.971L259.267 98.9646ZM263.729 85.12C263.729 88.8458 264.571 92.2931 266.277 95.4217L269.789 93.5063C268.423 91.0029 267.729 88.2208 267.729 85.12H263.729ZM266.29 95.4445C267.982 98.4534 270.258 100.877 273.107 102.682L275.247 99.3024C272.976 97.8642 271.156 95.9359 269.776 93.4835L266.29 95.4445ZM273.132 102.697C276.098 104.515 279.362 105.424 282.881 105.424V101.424C280.086 101.424 277.547 100.712 275.222 99.2868L273.132 102.697ZM282.881 105.424C286.549 105.424 289.872 104.525 292.783 102.682L290.643 99.3024C288.434 100.701 285.869 101.424 282.881 101.424V105.424ZM292.758 102.697C295.707 100.89 298.004 98.4495 299.623 95.4023L296.091 93.5257C294.808 95.9398 293.01 97.8514 290.668 99.2868L292.758 102.697ZM299.635 95.3799C301.243 92.259 302.033 88.8267 302.033 85.12H298.033C298.033 88.24 297.373 91.037 296.079 93.5481L299.635 95.3799ZM302.033 85.12C302.033 81.4141 301.243 78.0144 299.623 74.9657L296.091 76.8423C297.372 79.2549 298.033 81.9992 298.033 85.12H302.033ZM299.635 74.9881C298.02 71.8541 295.722 69.3594 292.758 67.5428L290.668 70.9532C292.995 72.3792 294.792 74.3219 296.079 76.8199L299.635 74.9881ZM292.822 67.5839C289.907 65.6402 286.57 64.688 282.881 64.688V68.688C285.848 68.688 288.399 69.4425 290.604 70.9121L292.822 67.5839ZM282.881 64.688C279.266 64.688 275.943 65.6457 272.965 67.5674L275.133 70.9286C277.445 69.437 280.011 68.688 282.881 68.688V64.688ZM272.94 67.5839C270.099 69.478 267.833 71.9865 266.149 75.0743L269.661 76.9897C271.049 74.4455 272.88 72.4314 275.158 70.9121L272.94 67.5839ZM266.139 75.0937C264.523 78.1351 263.729 81.4904 263.729 85.12H267.729C267.729 82.0936 268.386 79.3902 269.671 76.9703L266.139 75.0937ZM336.247 59.008L338.241 58.8501L338.095 57.008H336.247V59.008ZM337.271 71.936L335.331 72.4211L339.265 71.7781L337.271 71.936ZM336.759 69.888L334.925 69.0905L334.654 69.7138L334.819 70.3731L336.759 69.888ZM345.079 60.544L346.108 62.259L346.122 62.2507L346.136 62.2421L345.079 60.544ZM370.679 61.44L369.305 62.8929L369.325 62.912L369.345 62.9305L370.679 61.44ZM375.671 72.832H377.671V72.8138L377.671 72.7956L375.671 72.832ZM375.671 112V114H377.671V112H375.671ZM363.639 112H361.639V114H363.639V112ZM363.639 77.056H365.639V77.0266L365.638 76.9972L363.639 77.056ZM361.079 70.016L359.531 71.2825L359.563 71.321L359.596 71.3578L361.079 70.016ZM339.575 76.8L337.776 75.9262L337.766 75.9472L337.756 75.9685L339.575 76.8ZM337.527 112V114H339.527V112H337.527ZM325.623 112H323.623V114H325.623V112ZM325.623 59.008V57.008H323.623V59.008H325.623ZM334.253 59.1659L335.277 72.0939L339.265 71.7781L338.241 58.8501L334.253 59.1659ZM339.211 71.4509L338.699 69.4029L334.819 70.3731L335.331 72.4211L339.211 71.4509ZM338.593 70.6854C340.126 67.1608 342.608 64.3591 346.108 62.259L344.05 58.829C339.87 61.3369 336.806 64.7646 334.925 69.0905L338.593 70.6854ZM346.136 62.2421C349.623 60.0719 353.686 58.96 358.391 58.96V54.96C353.026 54.96 348.215 56.2374 344.022 58.8459L346.136 62.2421ZM358.391 58.96C363.001 58.96 366.577 60.3131 369.305 62.8929L372.053 59.9871C368.466 56.5936 363.85 54.96 358.391 54.96V58.96ZM369.345 62.9305C372.138 65.4294 373.595 68.6823 373.671 72.8684L377.671 72.7956C377.576 67.5951 375.705 63.2533 372.013 59.9495L369.345 62.9305ZM373.671 72.832V112H377.671V72.832H373.671ZM375.671 110H363.639V114H375.671V110ZM365.639 112V77.056H361.639V112H365.639ZM365.638 76.9972C365.542 73.7204 364.564 70.8865 362.562 68.6742L359.596 71.3578C360.837 72.7295 361.566 74.589 361.64 77.1148L365.638 76.9972ZM362.627 68.7495C360.583 66.2519 357.475 65.2 353.783 65.2V69.2C356.747 69.2 358.503 70.0254 359.531 71.2825L362.627 68.7495ZM353.783 65.2C350.315 65.2 347.144 66.1713 344.328 68.1136L346.598 71.4064C348.732 69.9353 351.107 69.2 353.783 69.2V65.2ZM344.328 68.1136C341.54 70.0362 339.361 72.6623 337.776 75.9262L341.374 77.6738C342.69 74.9644 344.437 72.8972 346.598 71.4064L344.328 68.1136ZM337.756 75.9685C336.25 79.2621 335.527 83.0109 335.527 87.168H339.527C339.527 83.4744 340.169 80.3113 341.394 77.6315L337.756 75.9685ZM335.527 87.168V112H339.527V87.168H335.527ZM337.527 110H325.623V114H337.527V110ZM327.623 112V59.008H323.623V112H327.623ZM325.623 61.008H336.247V57.008H325.623V61.008ZM398.933 35.712V33.712H396.933V35.712H398.933ZM410.837 35.712H412.837V33.712H410.837V35.712ZM410.837 59.264H408.837V61.264H410.837V59.264ZM425.429 59.264H427.429V57.264H425.429V59.264ZM425.429 68.608V70.608H427.429V68.608H425.429ZM410.837 68.608V66.608H408.837V68.608H410.837ZM410.837 112V114H412.837V112H410.837ZM398.933 112H396.933V114H398.933V112ZM398.933 68.608H400.933V66.608H398.933V68.608ZM389.205 68.608H387.205V70.608H389.205V68.608ZM389.205 59.264V57.264H387.205V59.264H389.205ZM398.933 59.264V61.264H400.933V59.264H398.933ZM398.933 37.712H410.837V33.712H398.933V37.712ZM408.837 35.712V59.264H412.837V35.712H408.837ZM410.837 61.264H425.429V57.264H410.837V61.264ZM423.429 59.264V68.608H427.429V59.264H423.429ZM425.429 66.608H410.837V70.608H425.429V66.608ZM408.837 68.608V112H412.837V68.608H408.837ZM410.837 110H398.933V114H410.837V110ZM400.933 112V68.608H396.933V112H400.933ZM398.933 66.608H389.205V70.608H398.933V66.608ZM391.205 68.608V59.264H387.205V68.608H391.205ZM389.205 61.264H398.933V57.264H389.205V61.264ZM400.933 59.264V35.712H396.933V59.264H400.933ZM445.701 110.08L444.762 111.846L444.769 111.85L444.777 111.854L445.701 110.08ZM436.101 100.736L434.349 101.701L434.361 101.723L434.373 101.744L436.101 100.736ZM436.357 70.272L438.087 71.2754L438.091 71.268L438.096 71.2606L436.357 70.272ZM446.213 60.288L445.248 58.5363L445.24 58.5406L445.232 58.5448L446.213 60.288ZM472.453 60.288L471.334 61.9457L471.348 61.9554L471.363 61.9649L472.453 60.288ZM480.261 68.224L482.134 68.9262L482.467 68.0368L481.989 67.2163L480.261 68.224ZM479.493 70.272L477.503 70.0685L481.366 70.9742L479.493 70.272ZM480.645 59.008V57.008H478.839L478.655 58.8045L480.645 59.008ZM491.653 59.008H493.653V57.008H491.653V59.008ZM491.653 112V114H493.653V112H491.653ZM479.749 112H477.749V114H479.749V112ZM479.749 98.176L481.595 97.4068L477.749 98.176H479.749ZM481.029 101.248L482.886 101.991L483.189 101.233L482.875 100.479L481.029 101.248ZM478.725 104.576L477.22 103.259L477.214 103.266L478.725 104.576ZM474.117 108.544L472.975 106.902L472.958 106.914L472.941 106.927L474.117 108.544ZM467.589 112L468.241 113.891L468.27 113.881L468.298 113.87L467.589 112ZM470.533 101.76L469.691 99.946L469.691 99.946L470.533 101.76ZM476.421 97.152L474.853 95.9106L474.846 95.9194L476.421 97.152ZM479.749 89.856L481.705 90.271L481.749 90.0658V89.856H479.749ZM479.749 79.488H481.749V79.2259L481.681 78.9727L479.749 79.488ZM476.165 72.832L474.656 74.1444L474.67 74.161L474.685 74.1773L476.165 72.832ZM470.021 68.352L469.179 70.166L469.206 70.1786L469.233 70.1903L470.021 68.352ZM453.381 68.992L452.377 67.2624L452.377 67.2624L453.381 68.992ZM446.981 75.392L445.261 74.3709L445.249 74.3911L445.238 74.4115L446.981 75.392ZM447.109 94.336L448.842 93.3381L448.842 93.3381L447.109 94.336ZM459.269 111.28C454.618 111.28 450.415 110.28 446.625 108.306L444.777 111.854C449.179 114.146 454.022 115.28 459.269 115.28V111.28ZM446.64 108.314C442.972 106.363 440.039 103.518 437.829 99.7283L434.373 101.744C436.941 106.146 440.408 109.53 444.762 111.846L446.64 108.314ZM437.853 99.7708C435.748 95.9504 434.645 91.2232 434.645 85.504H430.645C430.645 91.7314 431.846 97.1589 434.349 101.701L437.853 99.7708ZM434.645 85.504C434.645 79.8999 435.821 75.183 438.087 71.2754L434.627 69.2686C431.944 73.8943 430.645 79.3321 430.645 85.504H434.645ZM438.096 71.2606C440.403 67.2028 443.435 64.1454 447.194 62.0311L445.232 58.5448C440.799 61.0386 437.26 64.6372 434.618 69.2834L438.096 71.2606ZM447.178 62.0397C451.053 59.9047 455.284 58.832 459.909 58.832V54.832C454.635 54.832 449.736 56.0633 445.248 58.5363L447.178 62.0397ZM459.909 58.832C464.541 58.832 468.313 59.9065 471.334 61.9457L473.572 58.6303C469.766 56.0615 465.175 54.832 459.909 54.832V58.832ZM471.363 61.9649C474.553 64.0381 476.92 66.4662 478.533 69.2317L481.989 67.2163C480.018 63.8378 477.18 60.9752 473.543 58.6111L471.363 61.9649ZM478.388 67.5218L477.62 69.5698L481.366 70.9742L482.134 68.9262L478.388 67.5218ZM481.483 70.4755L482.635 59.2115L478.655 58.8045L477.503 70.0685L481.483 70.4755ZM480.645 61.008H491.653V57.008H480.645V61.008ZM489.653 59.008V112H493.653V59.008H489.653ZM491.653 110H479.749V114H491.653V110ZM481.749 112V98.176H477.749V112H481.749ZM477.903 98.9452L479.183 102.017L482.875 100.479L481.595 97.4068L477.903 98.9452ZM479.172 100.505C478.962 101.031 478.381 101.932 477.22 103.259L480.23 105.893C481.458 104.49 482.414 103.171 482.886 101.991L479.172 100.505ZM477.214 103.266C476.247 104.381 474.852 105.596 472.975 106.902L475.259 110.186C477.307 108.761 478.984 107.331 480.236 105.886L477.214 103.266ZM472.941 106.927C471.226 108.174 469.211 109.246 466.88 110.13L468.298 113.87C470.916 112.877 473.254 111.645 475.293 110.161L472.941 106.927ZM466.937 110.109C464.705 110.879 462.157 111.28 459.269 111.28V115.28C462.525 115.28 465.524 114.828 468.241 113.891L466.937 110.109ZM462.469 105.424C465.708 105.424 468.689 104.821 471.375 103.574L469.691 99.946C467.599 100.917 465.204 101.424 462.469 101.424V105.424ZM471.375 103.574C474.035 102.339 476.254 100.61 477.996 98.3846L474.846 95.9194C473.516 97.6189 471.81 98.962 469.691 99.946L471.375 103.574ZM477.989 98.3934C479.821 96.0797 481.051 93.3575 481.705 90.271L477.793 89.441C477.253 91.9865 476.264 94.1283 474.853 95.9106L477.989 98.3934ZM481.749 89.856V79.488H477.749V89.856H481.749ZM481.681 78.9727C480.92 76.1179 479.576 73.6111 477.645 71.4867L474.685 74.1773C476.167 75.8076 477.212 77.7381 477.817 80.0033L481.681 78.9727ZM477.674 71.5196C475.77 69.3297 473.475 67.6565 470.809 66.5137L469.233 70.1903C471.345 71.0955 473.147 72.409 474.656 74.1444L477.674 71.5196ZM470.863 66.538C468.184 65.2942 465.247 64.688 462.085 64.688V68.688C464.725 68.688 467.079 69.1912 469.179 70.166L470.863 66.538ZM462.085 64.688C458.587 64.688 455.337 65.5434 452.377 67.2624L454.385 70.7216C456.715 69.3686 459.269 68.688 462.085 68.688V64.688ZM452.377 67.2624C449.425 68.9764 447.05 71.3586 445.261 74.3709L448.701 76.4131C450.155 73.9641 452.046 72.0796 454.385 70.7216L452.377 67.2624ZM445.238 74.4115C443.507 77.4892 442.677 81.0384 442.677 84.992H446.677C446.677 81.607 447.383 78.7562 448.724 76.3725L445.238 74.4115ZM442.677 84.992C442.677 88.7372 443.571 92.1988 445.376 95.3339L448.842 93.3381C447.405 90.8412 446.677 88.0734 446.677 84.992H442.677ZM445.376 95.3339C447.164 98.4405 449.583 100.911 452.616 102.712L454.658 99.2723C452.23 97.8306 450.296 95.8635 448.842 93.3381L445.376 95.3339ZM452.616 102.712C455.654 104.515 458.95 105.424 462.469 105.424V101.424C459.673 101.424 457.082 100.711 454.658 99.2723L452.616 102.712ZM529.021 110.08L528.016 111.809L528.024 111.814L528.033 111.819L529.021 110.08ZM520.189 102.016L518.319 101.307L517.949 102.283L518.538 103.145L520.189 102.016ZM521.597 98.304H523.597L519.727 97.5947L521.597 98.304ZM521.597 112V114H523.597V112H521.597ZM509.693 112H507.693V114H509.693V112ZM509.693 12.928V10.928H507.693V12.928H509.693ZM521.469 12.928H523.469V10.928H521.469V12.928ZM521.469 71.168L519.476 71.3388L523.469 71.168H521.469ZM521.085 66.688L519.474 65.5032L519.028 66.1093L519.092 66.8588L521.085 66.688ZM530.173 59.648L531.004 61.4674L531.012 61.4634L531.021 61.4594L530.173 59.648ZM565.885 70.016L564.133 70.9812L564.145 71.0026L564.157 71.0237L565.885 70.016ZM565.629 100.096L563.914 99.067L563.906 99.0797L563.899 99.0926L565.629 100.096ZM555.645 109.952L556.582 111.719L556.596 111.711L556.61 111.704L555.645 109.952ZM555.133 94.208L556.876 95.1885L556.883 95.1772L556.889 95.1657L555.133 94.208ZM555.005 75.392L553.249 76.3497L553.267 76.3817L553.285 76.4131L555.005 75.392ZM548.605 68.736L547.56 70.4412L547.572 70.4485L547.584 70.4557L548.605 68.736ZM531.453 67.968L532.271 69.793L532.271 69.793L531.453 67.968ZM525.181 72.576L526.661 73.9213L526.676 73.905L526.69 73.8884L525.181 72.576ZM521.597 79.232L519.665 78.7167L519.597 78.9699V79.232H521.597ZM521.597 89.856H519.597V90.1181L519.665 90.3713L521.597 89.856ZM525.053 96.768L523.485 98.0094L523.498 98.0257L523.511 98.0418L525.053 96.768ZM531.197 101.504L530.328 103.305L530.353 103.317L530.379 103.329L531.197 101.504ZM541.949 111.28C537.387 111.28 533.426 110.283 530.009 108.341L528.033 111.819C532.125 114.144 536.783 115.28 541.949 115.28V111.28ZM530.026 108.351C526.593 106.355 523.877 103.865 521.84 100.887L518.538 103.145C520.938 106.653 524.11 109.538 528.016 111.809L530.026 108.351ZM522.059 102.725L523.467 99.0133L519.727 97.5947L518.319 101.307L522.059 102.725ZM519.597 98.304V112H523.597V98.304H519.597ZM521.597 110H509.693V114H521.597V110ZM511.693 112V12.928H507.693V112H511.693ZM509.693 14.928H521.469V10.928H509.693V14.928ZM519.469 12.928V71.168H523.469V12.928H519.469ZM523.462 70.9972L523.078 66.5172L519.092 66.8588L519.476 71.3388L523.462 70.9972ZM522.696 67.8728C524.591 65.2957 527.327 63.1458 531.004 61.4674L529.342 57.8286C525.168 59.7342 521.845 62.2776 519.474 65.5032L522.696 67.8728ZM531.021 61.4594C534.741 59.7181 538.885 58.832 543.485 58.832V54.832C538.357 54.832 533.626 55.8233 529.325 57.8366L531.021 61.4594ZM543.485 58.832C547.926 58.832 551.926 59.8981 555.529 62.0128L557.553 58.5632C553.306 56.0698 548.601 54.832 543.485 54.832V58.832ZM555.529 62.0128C559.128 64.1257 561.994 67.0989 564.133 70.9812L567.637 69.0508C565.168 64.5704 561.804 61.0583 557.553 58.5632L555.529 62.0128ZM564.157 71.0237C566.335 74.7565 567.469 79.2999 567.469 84.736H571.469C571.469 78.7374 570.214 73.4675 567.613 69.0083L564.157 71.0237ZM567.469 84.736C567.469 90.4198 566.253 95.1683 563.914 99.067L567.344 101.125C570.125 96.4904 571.469 90.9988 571.469 84.736H567.469ZM563.899 99.0926C561.6 103.056 558.532 106.078 554.68 108.2L556.61 111.704C561.121 109.218 564.708 105.669 567.359 101.099L563.899 99.0926ZM554.708 108.185C550.828 110.244 546.587 111.28 541.949 111.28V115.28C547.21 115.28 552.099 114.098 556.582 111.719L554.708 108.185ZM539.517 105.168C543.262 105.168 546.691 104.274 549.754 102.456L547.712 99.0163C545.313 100.44 542.599 101.168 539.517 101.168V105.168ZM549.754 102.456C552.782 100.658 555.166 98.2289 556.876 95.1885L553.39 93.2275C552.028 95.6484 550.146 97.5713 547.712 99.0163L549.754 102.456ZM556.889 95.1657C558.603 92.0227 559.437 88.4867 559.437 84.608H555.437C555.437 87.8973 554.735 90.7613 553.377 93.2503L556.889 95.1657ZM559.437 84.608C559.437 80.8632 558.543 77.4337 556.725 74.3709L553.285 76.4131C554.709 78.8116 555.437 81.5262 555.437 84.608H559.437ZM556.761 74.4343C555.055 71.3063 552.669 68.823 549.626 67.0163L547.584 70.4557C550.002 71.8917 551.883 73.8457 553.249 76.3497L556.761 74.4343ZM549.65 67.0308C546.659 65.1977 543.261 64.304 539.517 64.304V68.304C542.6 68.304 545.26 69.0316 547.56 70.4412L549.65 67.0308ZM539.517 64.304C536.354 64.304 533.385 64.9104 530.635 66.143L532.271 69.793C534.471 68.8069 536.878 68.304 539.517 68.304V64.304ZM530.635 66.143C527.907 67.3658 525.577 69.0726 523.672 71.2636L526.69 73.8884C528.198 72.1541 530.05 70.7888 532.271 69.793L530.635 66.143ZM523.701 71.2307C521.77 73.3551 520.426 75.8619 519.665 78.7167L523.529 79.7473C524.134 77.4821 525.179 75.5516 526.661 73.9213L523.701 71.2307ZM519.597 79.232V89.856H523.597V79.232H519.597ZM519.665 90.3713C520.417 93.1918 521.691 95.7437 523.485 98.0094L526.621 95.5266C525.172 93.6963 524.143 91.6402 523.529 89.3407L519.665 90.3713ZM523.511 98.0418C525.33 100.244 527.614 101.995 530.328 103.305L532.067 99.7029C529.83 98.6234 528.018 97.2175 526.595 95.4942L523.511 98.0418ZM530.379 103.329C533.143 104.568 536.2 105.168 539.517 105.168V101.168C536.69 101.168 534.2 100.659 532.015 99.679L530.379 103.329ZM591.456 110.08L590.517 111.846L590.524 111.85L590.532 111.854L591.456 110.08ZM581.856 100.736L580.104 101.701L580.116 101.723L580.128 101.744L581.856 100.736ZM582.112 70.272L583.842 71.2754L583.846 71.268L583.851 71.2606L582.112 70.272ZM591.968 60.288L591.003 58.5363L590.995 58.5406L590.987 58.5448L591.968 60.288ZM618.208 60.288L617.089 61.9457L617.103 61.9554L617.118 61.9649L618.208 60.288ZM626.016 68.224L627.889 68.9262L628.222 68.0368L627.744 67.2163L626.016 68.224ZM625.248 70.272L623.258 70.0685L627.121 70.9742L625.248 70.272ZM626.4 59.008V57.008H624.594L624.41 58.8045L626.4 59.008ZM637.408 59.008H639.408V57.008H637.408V59.008ZM637.408 112V114H639.408V112H637.408ZM625.504 112H623.504V114H625.504V112ZM625.504 98.176L627.35 97.4068L623.504 98.176H625.504ZM626.784 101.248L628.641 101.991L628.944 101.233L628.63 100.479L626.784 101.248ZM624.48 104.576L622.975 103.259L622.969 103.266L624.48 104.576ZM619.872 108.544L618.73 106.902L618.713 106.914L618.696 106.927L619.872 108.544ZM613.344 112L613.996 113.891L614.025 113.881L614.053 113.87L613.344 112ZM616.288 101.76L615.446 99.946L615.446 99.946L616.288 101.76ZM622.176 97.152L620.608 95.9106L620.601 95.9194L622.176 97.152ZM625.504 89.856L627.46 90.271L627.504 90.0658V89.856H625.504ZM625.504 79.488H627.504V79.2259L627.436 78.9727L625.504 79.488ZM621.92 72.832L620.411 74.1444L620.425 74.161L620.44 74.1773L621.92 72.832ZM615.776 68.352L614.934 70.166L614.961 70.1786L614.988 70.1903L615.776 68.352ZM599.136 68.992L598.132 67.2624L598.132 67.2624L599.136 68.992ZM592.736 75.392L591.016 74.3709L591.004 74.3911L590.993 74.4115L592.736 75.392ZM592.864 94.336L594.597 93.3381L594.597 93.3381L592.864 94.336ZM605.024 111.28C600.373 111.28 596.17 110.28 592.38 108.306L590.532 111.854C594.934 114.146 599.777 115.28 605.024 115.28V111.28ZM592.395 108.314C588.727 106.363 585.794 103.518 583.584 99.7283L580.128 101.744C582.696 106.146 586.163 109.53 590.517 111.846L592.395 108.314ZM583.608 99.7708C581.503 95.9504 580.4 91.2232 580.4 85.504H576.4C576.4 91.7314 577.601 97.1589 580.104 101.701L583.608 99.7708ZM580.4 85.504C580.4 79.8999 581.576 75.183 583.842 71.2754L580.382 69.2686C577.699 73.8943 576.4 79.3321 576.4 85.504H580.4ZM583.851 71.2606C586.158 67.2028 589.19 64.1454 592.949 62.0311L590.987 58.5448C586.554 61.0386 583.015 64.6372 580.373 69.2834L583.851 71.2606ZM592.933 62.0397C596.808 59.9047 601.039 58.832 605.664 58.832V54.832C600.39 54.832 595.491 56.0633 591.003 58.5363L592.933 62.0397ZM605.664 58.832C610.296 58.832 614.068 59.9065 617.089 61.9457L619.327 58.6303C615.521 56.0615 610.93 54.832 605.664 54.832V58.832ZM617.118 61.9649C620.308 64.0381 622.675 66.4662 624.288 69.2317L627.744 67.2163C625.773 63.8378 622.935 60.9752 619.298 58.6111L617.118 61.9649ZM624.143 67.5218L623.375 69.5698L627.121 70.9742L627.889 68.9262L624.143 67.5218ZM627.238 70.4755L628.39 59.2115L624.41 58.8045L623.258 70.0685L627.238 70.4755ZM626.4 61.008H637.408V57.008H626.4V61.008ZM635.408 59.008V112H639.408V59.008H635.408ZM637.408 110H625.504V114H637.408V110ZM627.504 112V98.176H623.504V112H627.504ZM623.658 98.9452L624.938 102.017L628.63 100.479L627.35 97.4068L623.658 98.9452ZM624.927 100.505C624.717 101.031 624.136 101.932 622.975 103.259L625.985 105.893C627.213 104.49 628.169 103.171 628.641 101.991L624.927 100.505ZM622.969 103.266C622.002 104.381 620.607 105.596 618.73 106.902L621.014 110.186C623.062 108.761 624.739 107.331 625.991 105.886L622.969 103.266ZM618.696 106.927C616.981 108.174 614.966 109.246 612.635 110.13L614.053 113.87C616.671 112.877 619.009 111.645 621.048 110.161L618.696 106.927ZM612.692 110.109C610.46 110.879 607.912 111.28 605.024 111.28V115.28C608.28 115.28 611.279 114.828 613.996 113.891L612.692 110.109ZM608.224 105.424C611.463 105.424 614.444 104.821 617.13 103.574L615.446 99.946C613.354 100.917 610.959 101.424 608.224 101.424V105.424ZM617.13 103.574C619.79 102.339 622.009 100.61 623.751 98.3846L620.601 95.9194C619.271 97.6189 617.565 98.962 615.446 99.946L617.13 103.574ZM623.744 98.3934C625.576 96.0797 626.806 93.3575 627.46 90.271L623.548 89.441C623.008 91.9865 622.019 94.1283 620.608 95.9106L623.744 98.3934ZM627.504 89.856V79.488H623.504V89.856H627.504ZM627.436 78.9727C626.675 76.1179 625.331 73.6111 623.4 71.4867L620.44 74.1773C621.922 75.8076 622.967 77.7381 623.572 80.0033L627.436 78.9727ZM623.429 71.5196C621.525 69.3297 619.23 67.6565 616.564 66.5137L614.988 70.1903C617.1 71.0955 618.902 72.409 620.411 74.1444L623.429 71.5196ZM616.618 66.538C613.939 65.2942 611.002 64.688 607.84 64.688V68.688C610.48 68.688 612.834 69.1912 614.934 70.166L616.618 66.538ZM607.84 64.688C604.342 64.688 601.092 65.5434 598.132 67.2624L600.14 70.7216C602.47 69.3686 605.024 68.688 607.84 68.688V64.688ZM598.132 67.2624C595.18 68.9764 592.805 71.3586 591.016 74.3709L594.456 76.4131C595.91 73.9641 597.801 72.0796 600.14 70.7216L598.132 67.2624ZM590.993 74.4115C589.262 77.4892 588.432 81.0384 588.432 84.992H592.432C592.432 81.607 593.138 78.7562 594.479 76.3725L590.993 74.4115ZM588.432 84.992C588.432 88.7372 589.326 92.1988 591.131 95.3339L594.597 93.3381C593.16 90.8412 592.432 88.0734 592.432 84.992H588.432ZM591.131 95.3339C592.919 98.4405 595.338 100.911 598.371 102.712L600.413 99.2723C597.985 97.8306 596.051 95.8635 594.597 93.3381L591.131 95.3339ZM598.371 102.712C601.409 104.515 604.705 105.424 608.224 105.424V101.424C605.428 101.424 602.837 100.711 600.413 99.2723L598.371 102.712ZM659.288 111.104L658.561 112.967L658.588 112.978L658.615 112.987L659.288 111.104ZM650.584 105.088L648.963 103.917L648.033 105.204L649.076 106.402L650.584 105.088ZM655.576 98.176L656.962 96.7343L655.303 95.1386L653.955 97.005L655.576 98.176ZM662.36 103.04L661.492 104.842L661.532 104.861L661.572 104.878L662.36 103.04ZM674.136 103.936L674.7 105.855L674.7 105.855L674.136 103.936ZM677.592 101.888L676.118 100.537L676.112 100.543L677.592 101.888ZM677.08 93.312L675.719 94.7776L675.744 94.8009L675.77 94.8234L677.08 93.312ZM672.344 90.624L671.661 92.5036L671.674 92.5084L671.687 92.513L672.344 90.624ZM666.328 88.704L665.696 90.6014L665.742 90.6168L665.789 90.6299L666.328 88.704ZM656.344 82.688L657.831 81.3501L657.831 81.3501L656.344 82.688ZM654.936 65.536L653.211 64.5246L653.205 64.5341L653.2 64.5437L654.936 65.536ZM661.208 59.52L660.25 57.7642L660.239 57.7705L660.227 57.7768L661.208 59.52ZM681.432 58.624L680.816 60.5269L680.842 60.5352L680.868 60.5427L681.432 58.624ZM689.624 62.976L691.31 64.0516L692.277 62.5368L690.873 61.4143L689.624 62.976ZM684.888 70.4L683.436 71.7755L685.197 73.6343L686.574 71.4756L684.888 70.4ZM679.384 66.816L678.707 68.6978L678.707 68.6978L679.384 66.816ZM673.624 65.536L673.507 67.5325L673.515 67.5331L673.524 67.5335L673.624 65.536ZM669.4 66.176L668.698 64.3033L668.677 64.311L668.657 64.319L669.4 66.176ZM666.712 76.032L668.073 74.5664L668.073 74.5664L666.712 76.032ZM671.32 78.72L670.637 80.5996L670.687 80.6178L670.738 80.6333L671.32 78.72ZM677.08 80.64L676.397 82.5196L676.459 82.5422L676.522 82.5607L677.08 80.64ZM684.12 83.712L683.06 85.408L683.06 85.408L684.12 83.712ZM688.984 88.448L687.297 89.5217L687.314 89.5485L687.332 89.5747L688.984 88.448ZM688.6 104.32L686.857 103.339L686.852 103.349L686.846 103.358L688.6 104.32ZM681.816 110.72L682.731 112.499L682.74 112.494L682.75 112.489L681.816 110.72ZM670.296 111.024C666.774 111.024 663.332 110.424 659.961 109.221L658.615 112.987C662.412 114.344 666.309 115.024 670.296 115.024V111.024ZM660.015 109.241C656.796 107.984 654.169 106.159 652.092 103.774L649.076 106.402C651.607 109.308 654.783 111.493 658.561 112.967L660.015 109.241ZM652.205 106.259L657.197 99.347L653.955 97.005L648.963 103.917L652.205 106.259ZM654.19 99.6177C656.531 101.869 658.963 103.624 661.492 104.842L663.228 101.238C661.149 100.237 659.058 98.7498 656.962 96.7343L654.19 99.6177ZM661.572 104.878C664.179 105.995 666.793 106.576 669.4 106.576V102.576C667.4 102.576 665.32 102.133 663.148 101.202L661.572 104.878ZM669.4 106.576C671.274 106.576 673.045 106.342 674.7 105.855L673.572 102.017C672.326 102.384 670.94 102.576 669.4 102.576V106.576ZM674.7 105.855C676.435 105.345 677.928 104.492 679.072 103.233L676.112 100.543C675.549 101.162 674.738 101.674 673.572 102.017L674.7 105.855ZM679.066 103.239C680.416 101.767 681 99.8791 681 97.792H677C677 99.1182 676.645 99.9612 676.118 100.537L679.066 103.239ZM681 97.792C681 95.4052 680.159 93.3337 678.39 91.8006L675.77 94.8234C676.561 95.5089 677 96.4242 677 97.792H681ZM678.441 91.8464C676.996 90.5046 675.156 89.4846 673.001 88.735L671.687 92.513C673.457 93.1288 674.775 93.9007 675.719 94.7776L678.441 91.8464ZM673.028 88.7444C671.098 88.0427 669.044 87.3876 666.867 86.7781L665.789 90.6299C667.879 91.2151 669.835 91.8399 671.661 92.5036L673.028 88.7444ZM666.96 86.8066C662.832 85.4303 659.839 83.5813 657.831 81.3501L654.857 84.0259C657.457 86.9147 661.12 89.0763 665.696 90.6014L666.96 86.8066ZM657.831 81.3501C655.88 79.1827 654.888 76.5545 654.888 73.344H650.888C650.888 77.4722 652.2 81.0733 654.857 84.0259L657.831 81.3501ZM654.888 73.344C654.888 70.8676 655.484 68.6081 656.673 66.5283L653.2 64.5437C651.657 67.2425 650.888 70.1884 650.888 73.344H654.888ZM656.661 66.5474C657.917 64.4061 659.737 62.642 662.189 61.2631L660.227 57.7768C657.217 59.47 654.857 61.7166 653.211 64.5246L656.661 66.5474ZM662.166 61.2758C664.618 59.9384 667.724 59.216 671.576 59.216V55.216C667.236 55.216 663.43 56.0296 660.25 57.7642L662.166 61.2758ZM671.576 59.216C675.077 59.216 678.15 59.6641 680.816 60.5269L682.048 56.7211C678.912 55.7066 675.413 55.216 671.576 55.216V59.216ZM680.868 60.5427C683.499 61.3168 686 62.6384 688.375 64.5377L690.873 61.4143C688.128 59.2176 685.167 57.6379 681.996 56.7053L680.868 60.5427ZM687.938 61.9004L683.202 69.3244L686.574 71.4756L691.31 64.0516L687.938 61.9004ZM686.34 69.0245C684.586 67.1726 682.484 65.8065 680.061 64.9342L678.707 68.6978C680.55 69.3615 682.119 70.3847 683.436 71.7755L686.34 69.0245ZM680.061 64.9342C677.799 64.1198 675.68 63.6363 673.724 63.5385L673.524 67.5335C674.981 67.6064 676.702 67.9762 678.707 68.6978L680.061 64.9342ZM673.741 63.5395C672.011 63.4377 670.324 63.6936 668.698 64.3033L670.102 68.0487C671.207 67.6344 672.336 67.4637 673.507 67.5325L673.741 63.5395ZM668.657 64.319C667.121 64.9336 665.794 65.8249 664.72 67.0067L667.68 69.6973C668.312 69.0018 669.119 68.4424 670.143 68.033L668.657 64.319ZM664.72 67.0067C663.529 68.3171 662.92 69.9074 662.92 71.68H666.92C666.92 70.8926 667.165 70.2642 667.68 69.6973L664.72 67.0067ZM662.92 71.68C662.92 73.9668 663.706 75.97 665.351 77.4976L668.073 74.5664C667.329 73.8753 666.92 72.9772 666.92 71.68H662.92ZM665.351 77.4976C666.78 78.8248 668.563 79.8456 670.637 80.5996L672.004 76.8404C670.322 76.2291 669.033 75.4578 668.073 74.5664L665.351 77.4976ZM670.738 80.6333C672.667 81.2206 674.553 81.8494 676.397 82.5196L677.764 78.7604C675.852 78.0653 673.898 77.4141 671.902 76.8066L670.738 80.6333ZM676.522 82.5607C679.015 83.2844 681.188 84.2383 683.06 85.408L685.18 82.016C682.956 80.6257 680.436 79.5316 677.638 78.7193L676.522 82.5607ZM683.06 85.408C684.877 86.5436 686.275 87.9169 687.297 89.5217L690.671 87.3742C689.303 85.2244 687.459 83.4403 685.18 82.016L683.06 85.408ZM687.332 89.5747C688.336 91.048 688.904 92.9771 688.904 95.488H692.904C692.904 92.3669 692.192 89.6027 690.636 87.3213L687.332 89.5747ZM688.904 95.488C688.904 98.3047 688.223 100.911 686.857 103.339L690.343 105.301C692.049 102.268 692.904 98.986 692.904 95.488H688.904ZM686.846 103.358C685.611 105.61 683.662 107.484 680.883 108.951L682.75 112.489C686.114 110.713 688.687 108.32 690.354 105.282L686.846 103.358ZM680.901 108.941C678.287 110.286 674.79 111.024 670.296 111.024V115.024C675.188 115.024 679.371 114.226 682.731 112.499L680.901 108.941ZM713.973 109.696L712.984 111.435L712.997 111.442L713.011 111.449L713.973 109.696ZM703.861 99.712L702.101 100.662L702.113 100.683L702.125 100.704L703.861 99.712ZM704.373 70.912L706.073 71.9659L706.073 71.9659L704.373 70.912ZM747.253 62.976L745.924 64.4708L745.924 64.4708L747.253 62.976ZM756.597 79.872L757.261 81.7586L758.941 81.1675L758.548 79.4308L756.597 79.872ZM712.949 95.232L711.092 95.9748L711.804 97.7551L713.613 97.1186L712.949 95.232ZM710.133 88.192L709.448 86.3128L707.51 87.019L708.276 88.9348L710.133 88.192ZM745.973 75.136L747.063 76.8129L745.288 73.2568L745.973 75.136ZM743.413 76.8L741.533 77.4835L742.393 79.8482L744.503 78.4769L743.413 76.8ZM738.293 69.504L736.961 70.9959L736.976 71.0093L736.991 71.0225L738.293 69.504ZM720.245 68.736L721.274 70.451L721.295 70.4386L721.315 70.4256L720.245 68.736ZM714.229 75.136L715.995 76.0743L715.995 76.0743L714.229 75.136ZM714.357 94.208L712.601 95.1657L712.607 95.1772L712.614 95.1885L714.357 94.208ZM720.629 100.736L719.584 102.441L719.616 102.461L719.648 102.479L720.629 100.736ZM736.501 101.76L735.783 99.8933L735.771 99.8981L735.758 99.903L736.501 101.76ZM742.645 98.432L744.342 97.3742L743.206 95.5509L741.469 96.8145L742.645 98.432ZM748.149 107.264L749.271 108.92L750.865 107.84L749.846 106.206L748.149 107.264ZM739.189 111.616L738.557 109.719L738.549 109.721L738.542 109.724L739.189 111.616ZM729.589 111.28C723.793 111.28 718.934 110.138 714.936 107.943L713.011 111.449C717.716 114.032 723.267 115.28 729.589 115.28V111.28ZM714.962 107.957C710.908 105.653 707.802 102.577 705.598 98.7197L702.125 100.704C704.699 105.21 708.334 108.79 712.984 111.435L714.962 107.957ZM705.621 98.7617C703.494 94.8222 702.405 90.2921 702.405 85.12H698.405C698.405 90.8706 699.621 96.0684 702.101 100.662L705.621 98.7617ZM702.405 85.12C702.405 80.2726 703.631 75.904 706.073 71.9659L702.673 69.8581C699.824 74.4533 698.405 79.5567 698.405 85.12H702.405ZM706.073 71.9659C708.541 67.9856 711.839 64.803 715.996 62.4044L713.998 58.9396C709.28 61.661 705.496 65.3051 702.673 69.8581L706.073 71.9659ZM715.996 62.4044C720.11 60.0313 724.711 58.832 729.845 58.832V54.832C724.057 54.832 718.759 56.1927 713.998 58.9396L715.996 62.4044ZM729.845 58.832C736.423 58.832 741.732 60.7443 745.924 64.4708L748.582 61.4812C743.558 57.0157 737.261 54.832 729.845 54.832V58.832ZM745.924 64.4708C750.164 68.2392 753.099 73.4726 754.646 80.3132L758.548 79.4308C756.852 71.9354 753.558 65.9048 748.582 61.4812L745.924 64.4708ZM755.933 77.9854L712.285 93.3454L713.613 97.1186L757.261 81.7586L755.933 77.9854ZM714.806 94.4892L711.99 87.4492L708.276 88.9348L711.092 95.9748L714.806 94.4892ZM710.818 90.0712L746.658 77.0152L745.288 73.2568L709.448 86.3128L710.818 90.0712ZM744.883 73.4591L742.323 75.1231L744.503 78.4769L747.063 76.8129L744.883 73.4591ZM745.293 76.1165C744.145 72.9606 742.232 70.2458 739.595 67.9855L736.991 71.0225C739.133 72.8582 740.633 75.0074 741.533 77.4835L745.293 76.1165ZM739.625 68.0121C736.799 65.489 733.178 64.304 728.949 64.304V68.304C732.401 68.304 735.008 69.2524 736.961 70.9959L739.625 68.0121ZM728.949 64.304C725.355 64.304 722.078 65.208 719.175 67.0464L721.315 70.4256C723.532 69.0214 726.058 68.304 728.949 68.304V64.304ZM719.216 67.021C716.333 68.751 714.078 71.1579 712.463 74.1977L715.995 76.0743C717.282 73.6527 719.037 71.793 721.274 70.451L719.216 67.021ZM712.463 74.1977C710.839 77.2534 710.053 80.6977 710.053 84.48H714.053C714.053 81.265 714.717 78.4799 715.995 76.0743L712.463 74.1977ZM710.053 84.48C710.053 88.4353 710.883 92.016 712.601 95.1657L716.113 93.2503C714.759 90.768 714.053 87.8634 714.053 84.48H710.053ZM712.614 95.1885C714.315 98.2132 716.645 100.64 719.584 102.441L721.674 99.0308C719.322 97.5894 717.471 95.6641 716.1 93.2275L712.614 95.1885ZM719.648 102.479C722.705 104.198 726.12 105.04 729.845 105.04V101.04C726.744 101.04 724.014 100.346 721.61 98.9928L719.648 102.479ZM729.845 105.04C732.403 105.04 734.874 104.565 737.244 103.617L735.758 99.903C733.862 100.662 731.895 101.04 729.845 101.04V105.04ZM737.219 103.627C739.597 102.712 741.799 101.52 743.821 100.049L741.469 96.8145C739.736 98.0747 737.843 99.1012 735.783 99.8933L737.219 103.627ZM740.948 99.4898L746.452 108.322L749.846 106.206L744.342 97.3742L740.948 99.4898ZM747.027 105.608C744.547 107.288 741.728 108.661 738.557 109.719L739.821 113.513C743.306 112.352 746.46 110.824 749.271 108.92L747.027 105.608ZM738.542 109.724C735.49 110.768 732.508 111.28 729.589 111.28V115.28C732.985 115.28 736.403 114.683 739.836 113.508L738.542 109.724Z" fill="black" mask="url(#path-4-outside-1_54_41)"/>
</svg>
